<svg width="16" height="14" viewBox="0 0 16 14" fill="none" xmlns="http://www.w3.org/2000/svg">
<path d="M16 0.7C16 1.085 15.7 1.4 15.3333 1.4H0.666667C0.3 1.4 0 1.085 0 0.7C0 0.315 0.3 0 0.666667 0H15.3333C15.7 0 16 0.315 16 0.7ZM10 12.6H6C5.63333 12.6 5.33333 12.915 5.33333 13.3C5.33333 13.685 5.63333 14 6 14H10C10.3667 14 10.6667 13.685 10.6667 13.3C10.6667 12.915 10.3667 12.6 10 12.6ZM12.6667 6.3H3.33333C2.96667 6.3 2.66667 6.615 2.66667 7C2.66667 7.385 2.96667 7.7 3.33333 7.7H12.6667C13.0333 7.7 13.3333 7.385 13.3333 7C13.3333 6.615 13.0333 6.3 12.6667 6.3Z" fill="#13FC03"/>
</svg>
