<svg width="18" height="16" viewBox="0 0 18 16" fill="none" xmlns="http://www.w3.org/2000/svg">
<path d="M14.25 2.90909H12.75V2.18182C12.75 1.60316 12.5129 1.04821 12.091 0.63904C11.669 0.229869 11.0967 0 10.5 0H2.25C1.65326 0 1.08097 0.229869 0.65901 0.63904C0.237053 1.04821 0 1.60316 0 2.18182L0 13.0909H1.53075C1.51145 13.2112 1.50118 13.3328 1.5 13.4545C1.5 14.1296 1.77656 14.7771 2.26884 15.2545C2.76113 15.7318 3.42881 16 4.125 16C4.82119 16 5.48887 15.7318 5.98116 15.2545C6.47344 14.7771 6.75 14.1296 6.75 13.4545C6.74882 13.3328 6.73855 13.2112 6.71925 13.0909H11.2808C11.2615 13.2112 11.2512 13.3328 11.25 13.4545C11.25 14.1296 11.5266 14.7771 12.0188 15.2545C12.5111 15.7318 13.1788 16 13.875 16C14.5712 16 15.2389 15.7318 15.7312 15.2545C16.2234 14.7771 16.5 14.1296 16.5 13.4545C16.4988 13.3328 16.4885 13.2112 16.4692 13.0909H18V6.54545C17.9988 5.58139 17.6033 4.65713 16.9003 3.97543C16.1973 3.29373 15.2442 2.91025 14.25 2.90909ZM14.25 4.36364C14.8467 4.36364 15.419 4.59351 15.841 5.00268C16.2629 5.41185 16.5 5.9668 16.5 6.54545V7.27273H12.75V4.36364H14.25ZM5.25 13.4545C5.25 13.7439 5.13147 14.0213 4.9205 14.2259C4.70952 14.4305 4.42337 14.5455 4.125 14.5455C3.82663 14.5455 3.54048 14.4305 3.3295 14.2259C3.11853 14.0213 3 13.7439 3 13.4545C3.00046 13.3302 3.02409 13.2071 3.06975 13.0909H5.18025C5.22591 13.2071 5.24954 13.3302 5.25 13.4545ZM11.25 11.6364H1.5V2.18182C1.5 1.98893 1.57902 1.80395 1.71967 1.66756C1.86032 1.53117 2.05109 1.45455 2.25 1.45455H10.5C10.6989 1.45455 10.8897 1.53117 11.0303 1.66756C11.171 1.80395 11.25 1.98893 11.25 2.18182V11.6364ZM15 13.4545C15 13.7439 14.8815 14.0213 14.6705 14.2259C14.4595 14.4305 14.1734 14.5455 13.875 14.5455C13.5766 14.5455 13.2905 14.4305 13.0795 14.2259C12.8685 14.0213 12.75 13.7439 12.75 13.4545C12.7503 13.3302 12.774 13.207 12.8197 13.0909H14.9303C14.976 13.207 14.9997 13.3302 15 13.4545ZM12.75 11.6364V8.72727H16.5V11.6364H12.75Z" fill="#9C9EAE"/>
</svg>
