<svg width="23" height="21" viewBox="0 0 23 21" fill="none" xmlns="http://www.w3.org/2000/svg">
<path d="M16.4173 0C15.3612 0.0164268 14.3282 0.311237 13.4225 0.854658C12.5168 1.39808 11.7705 2.17087 11.259 3.09499C10.7476 2.17087 10.0013 1.39808 9.09558 0.854658C8.18988 0.311237 7.15682 0.0164268 6.10072 0C4.41718 0.0731455 2.83102 0.809624 1.68876 2.04854C0.5465 3.28745 -0.0590011 4.92808 0.00454035 6.61201C0.00454035 12.9661 10.2799 20.305 10.7169 20.6164L11.259 20.9999L11.8011 20.6164C12.2382 20.3069 22.5135 12.9661 22.5135 6.61201C22.5771 4.92808 21.9716 3.28745 20.8293 2.04854C19.687 0.809624 18.1009 0.0731455 16.4173 0ZM11.259 18.6909C8.20813 16.4119 1.88029 10.8128 1.88029 6.61201C1.81618 5.42534 2.22389 4.26145 3.01452 3.37419C3.80515 2.48693 4.91453 1.94829 6.10072 1.87575C7.28692 1.94829 8.3963 2.48693 9.18693 3.37419C9.97755 4.26145 10.3853 5.42534 10.3212 6.61201H12.1969C12.1328 5.42534 12.5405 4.26145 13.3311 3.37419C14.1218 2.48693 15.2311 1.94829 16.4173 1.87575C17.6035 1.94829 18.7129 2.48693 19.5035 3.37419C20.2942 4.26145 20.7019 5.42534 20.6378 6.61201C20.6378 10.8146 14.3099 16.4119 11.259 18.6909Z" fill="#9C9EAE"/>
</svg>
