<svg width="98" height="98" viewBox="0 0 98 98" fill="none" xmlns="http://www.w3.org/2000/svg">
<path d="M65.9402 23.5899C64.3875 23.7652 62.91 24.4789 61.7831 25.6309C60.7688 26.6576 60.2053 27.6218 59.8547 28.924L59.5793 29.9759H42.7503H25.9338V30.7272V31.4659L27.5366 31.5035L29.1268 31.5411L29.1644 32.3174L29.202 33.1062H27.5616H25.9338V33.9202V34.7341H27.5616H29.202L29.1644 35.5104L29.1268 36.2992L27.5366 36.3368L25.9338 36.3744V37.1758V37.9897H27.5616H29.1894V38.741V39.4922H27.5616H25.9338V40.3061V41.1075L27.5366 41.1451L29.1268 41.1827V41.9339V42.6852L27.5366 42.7228L25.9338 42.7604V43.5618V44.3757H27.5616H29.202L29.1644 45.152L29.1268 45.9408L27.5366 45.9784L25.9338 46.016V46.7547V47.4935L27.5366 47.5311L29.1268 47.5687L29.1644 48.345L29.202 49.1338H27.5616H25.9338V49.9477V50.7491L27.5366 50.7867L29.1268 50.8243V51.5756V52.3268L27.5366 52.3644L25.9338 52.402V53.2034V54.0173H27.5616H29.1894V54.7685V55.5198H27.5616H25.9338V56.3337V57.1351L27.5366 57.1727L29.1268 57.2103L29.1644 57.9991L29.202 58.7754H27.5616H25.9338V59.5893V60.4032H27.5616H29.202L29.1644 61.1796L29.1268 61.9684L27.5366 62.006L25.9338 62.0436V62.7823V63.5211L27.5366 63.5587L29.1268 63.5962L29.1644 64.3726L29.202 65.1614H27.5616H25.9338V65.9753V66.7767L27.5366 66.8143L29.1268 66.8519V67.6031V68.3544L27.5366 68.392L25.9338 68.4296V69.2435V70.0574L47.0076 70.0198L68.0689 69.9822L68.8828 69.7068C70.0723 69.2936 71.1993 68.5798 72.0132 67.7158C72.802 66.8644 73.2278 66.1757 73.666 65.0112L73.954 64.2223L73.9916 47.168C74.0166 32.6054 73.9916 29.9759 73.8413 29.2371C73.09 25.6309 69.6716 23.1892 65.9402 23.5899ZM68.5697 25.418C70.2977 26.0065 71.6751 27.4465 72.1885 29.212C72.3638 29.8131 72.3888 31.5035 72.3888 44.0501V58.1995L71.8003 57.6235C69.0957 54.9814 64.7632 54.9188 62.0084 57.4732L61.2446 58.1744L61.2697 43.7245L61.3072 29.2747L61.7831 28.323C62.5469 26.7578 63.9618 25.6309 65.6272 25.2552C66.4536 25.0674 67.7308 25.1425 68.5697 25.418ZM59.5542 32.7306V33.9202L48.6104 33.9577C38.7058 33.9828 37.6415 34.0078 37.4286 34.1831C37.2408 34.3584 37.2032 34.6464 37.1782 36.1615L37.1406 37.927L35.3876 37.9646C33.9852 37.9897 33.597 38.0397 33.4217 38.2025C33.2089 38.3903 33.1963 39.0039 33.1963 49.9352C33.1963 56.2837 33.2464 61.5302 33.2965 61.6053C33.5219 61.9434 33.9977 62.0311 35.5629 62.0311H37.2032V63.7465C37.2032 64.6981 37.2533 65.5371 37.3034 65.6122C37.5789 66.0254 37.8794 66.038 49.1488 66.038H60.3556L60.7813 66.6891C61.0192 67.0522 61.4199 67.5531 61.6704 67.7784C61.9208 68.0164 62.1211 68.2668 62.1211 68.3169C62.1211 68.367 55.059 68.4045 46.4442 68.392L30.7546 68.3544L30.7171 50.073C30.7046 40.0182 30.7171 31.7164 30.7546 31.6287C30.7922 31.5035 33.7473 31.4784 45.1795 31.5035L59.5542 31.5411V32.7306ZM59.5542 36.7375V37.927L50.6138 37.9646C42.5625 37.9897 41.6484 38.0147 41.4355 38.19C41.2477 38.3653 41.2101 38.6533 41.1851 40.1684L41.1475 41.9339L39.2943 41.9966C37.8293 42.0466 37.4161 42.0967 37.3285 42.247C37.1782 42.4724 37.1657 57.3856 37.3034 57.6109C37.4912 57.9115 38.1298 58.0242 39.6575 58.0242H41.2101V59.7396C41.2101 60.6912 41.2602 61.5302 41.3103 61.6053C41.5858 62.0185 41.9239 62.0311 50.7766 62.0311H59.6168V62.8324C59.6168 63.2707 59.6544 63.8091 59.692 64.022L59.7796 64.4101L49.274 64.3851L38.7684 64.3475L38.7309 62.582C38.7058 61.0794 38.6683 60.7789 38.4804 60.6161C38.3051 60.4533 37.9044 60.4032 36.5146 60.3782L34.7615 60.3406V49.9477V39.5549L36.6147 39.4922C38.0798 39.4422 38.493 39.3921 38.5806 39.2418C38.6432 39.1416 38.7058 38.2902 38.7058 37.3511C38.7058 36.4119 38.7434 35.6106 38.7935 35.573C38.831 35.5229 43.5266 35.4979 49.2114 35.5104L59.5542 35.548V36.7375ZM59.5542 40.7444V41.9339L52.5171 41.9966C48.6479 42.0341 45.4424 42.1093 45.3798 42.1593C45.3297 42.2219 45.2546 43.0985 45.217 44.1002L45.1544 45.9408L43.4014 45.9784C41.999 46.0035 41.6108 46.0535 41.4355 46.2163C41.2227 46.4041 41.2101 46.7047 41.2101 49.9352C41.2101 51.8761 41.2602 53.5164 41.3103 53.5915C41.5357 53.9296 42.0115 54.0173 43.5767 54.0173H45.217V55.7327C45.217 56.6843 45.2671 57.5233 45.3172 57.6109C45.5551 57.9866 46.1937 58.0242 52.8677 58.0242H59.6168V59.2137V60.4032H51.1648H42.7127V58.6127C42.7127 57.035 42.6877 56.7845 42.4873 56.6092C42.312 56.4464 41.9239 56.3964 40.5215 56.3713L38.7684 56.3337V49.9477V43.5618L40.5215 43.5242C42.8254 43.4866 42.7127 43.5868 42.7127 41.3705C42.7127 40.4314 42.7503 39.6175 42.8004 39.5799C42.8379 39.5298 46.632 39.5048 51.2149 39.5173L59.5542 39.5549V40.7444ZM59.5542 49.9477V56.3337H53.1682H46.7822L46.7447 54.5807C46.7196 53.1783 46.6695 52.7901 46.5068 52.6148C46.3315 52.4145 46.081 52.3895 44.5033 52.3895H42.7127L42.7378 49.9728L42.7753 47.5687L44.5284 47.5311C46.8323 47.4935 46.7196 47.5937 46.7196 45.3774C46.7196 44.4383 46.7572 43.6244 46.8073 43.5868C46.8448 43.5367 49.7373 43.5117 53.2183 43.5242L59.5542 43.5618V49.9477ZM68.0438 57.3355C70.6608 58.0116 72.3888 60.1904 72.3888 62.7823C72.3888 65.512 70.4104 67.8285 67.6306 68.3169C65.3267 68.7176 62.8724 67.4153 61.7831 65.1865C61.3198 64.2474 61.3072 64.2098 61.3072 62.7949C61.3072 61.4175 61.3323 61.2923 61.7079 60.5034C62.4342 58.9758 63.8241 57.7737 65.3642 57.373C66.4035 57.1101 67.1298 57.0976 68.0438 57.3355Z" fill="#13FC03"/>
<path d="M33.1964 34.7341V35.4854H33.9476H34.6989V34.7341V33.9828H33.9476H33.1964V34.7341Z" fill="#13FC03"/>
<path d="M33.1964 65.2241V66.038H33.9476H34.6989V65.2241V64.4102H33.9476H33.1964V65.2241Z" fill="#13FC03"/>
<path d="M65.84 58.9007C63.3983 59.5142 62.1086 62.3566 63.2481 64.5855C64.5503 67.1023 67.9937 67.5155 69.8219 65.3743C71.4622 63.4585 70.8361 60.3156 68.5948 59.2137C67.8435 58.8506 66.6038 58.7129 65.84 58.9007ZM67.831 60.6412C70.0723 61.6679 69.296 65.1615 66.8167 65.1615C65.552 65.1615 64.375 64.0095 64.375 62.7824C64.375 62.3566 64.6505 61.6429 64.9635 61.2673C65.6522 60.4534 66.8418 60.1904 67.831 60.6412Z" fill="#13FC03"/>
<rect x="1" y="1" width="96" height="96" stroke="#13FC03" stroke-width="2"/>
</svg>
