<svg width="15" height="15" viewBox="0 0 15 15" fill="none" xmlns="http://www.w3.org/2000/svg">
<path d="M6.30204 10.4414L3.40909 7.54774L4.37318 6.58365L6.30204 8.51183L10.1584 4.65479L11.1232 5.61956L6.30204 10.44V10.4414Z" fill="#42A655"/>
<path fill-rule="evenodd" clip-rule="evenodd" d="M0 7.5C0 3.35795 3.35795 0 7.5 0C11.642 0 15 3.35795 15 7.5C15 11.642 11.642 15 7.5 15C3.35795 15 0 11.642 0 7.5ZM7.5 13.6364C6.69416 13.6364 5.89621 13.4776 5.15172 13.1693C4.40722 12.8609 3.73075 12.4089 3.16094 11.8391C2.59112 11.2692 2.13912 10.5928 1.83074 9.84828C1.52236 9.10379 1.36364 8.30584 1.36364 7.5C1.36364 6.69416 1.52236 5.89621 1.83074 5.15172C2.13912 4.40722 2.59112 3.73075 3.16094 3.16094C3.73075 2.59112 4.40722 2.13912 5.15172 1.83074C5.89621 1.52236 6.69416 1.36364 7.5 1.36364C9.12747 1.36364 10.6883 2.01014 11.8391 3.16094C12.9899 4.31173 13.6364 5.87254 13.6364 7.5C13.6364 9.12747 12.9899 10.6883 11.8391 11.8391C10.6883 12.9899 9.12747 13.6364 7.5 13.6364Z" fill="#42A655"/>
</svg>
