<svg width="11" height="14" viewBox="0 0 11 14" fill="none" xmlns="http://www.w3.org/2000/svg">
<path d="M5.5 13.1349L5.11848 12.8079C4.59251 12.3675 0 8.40123 0 5.5C0 2.46244 2.46244 0 5.5 0C8.53756 0 11 2.46244 11 5.5C11 8.40125 6.40749 12.3675 5.8837 12.8101L5.5 13.1349ZM5.5 1.18926C3.12038 1.19195 1.19198 3.12035 1.18929 5.49997C1.18929 7.32259 4.01478 10.2342 5.5 11.5668C6.98525 10.2336 9.81071 7.32039 9.81071 5.49997C9.80802 3.12035 7.87965 1.19198 5.5 1.18926Z" fill="#13FC03"/>
<path d="M5.50193 7.68001C4.29787 7.68001 3.32178 6.70392 3.32178 5.49985C3.32178 4.29579 4.29787 3.3197 5.50193 3.3197C6.70599 3.3197 7.68208 4.29579 7.68208 5.49985C7.68208 6.70392 6.70602 7.68001 5.50193 7.68001ZM5.50193 4.40975C4.8999 4.40975 4.41185 4.8978 4.41185 5.49983C4.41185 6.10186 4.8999 6.58991 5.50193 6.58991C6.10396 6.58991 6.59201 6.10186 6.59201 5.49983C6.59201 4.8978 6.10399 4.40975 5.50193 4.40975Z" fill="#13FC03"/>
</svg>
