<svg width="18" height="19" viewBox="0 0 18 19" fill="none" xmlns="http://www.w3.org/2000/svg">
<path d="M17.7896 17.3684L13.3166 12.8954C14.5355 11.4045 15.1349 9.50222 14.9906 7.5819C14.8463 5.66158 13.9694 3.87018 12.5414 2.57823C11.1133 1.28628 9.24335 0.592641 7.31822 0.640775C5.39309 0.68891 3.56011 1.47514 2.19841 2.83684C0.836711 4.19854 0.0504818 6.03152 0.00234752 7.95665C-0.0457868 9.88178 0.647857 11.7518 1.9398 13.1798C3.23175 14.6079 5.02315 15.4847 6.94347 15.629C8.86379 15.7733 10.7661 15.174 12.2569 13.955L16.73 18.4281C16.8713 18.5646 17.0606 18.6401 17.2571 18.6384C17.4536 18.6367 17.6416 18.5579 17.7805 18.4189C17.9195 18.28 17.9983 18.092 18 17.8956C18.0017 17.6991 17.9261 17.5098 17.7896 17.3684ZM7.51783 14.1513C6.33212 14.1513 5.17303 13.7997 4.18714 13.141C3.20126 12.4822 2.43286 11.5459 1.9791 10.4505C1.52535 9.35501 1.40663 8.14961 1.63795 6.98668C1.86927 5.82375 2.44025 4.75553 3.27867 3.9171C4.1171 3.07867 5.18532 2.5077 6.34825 2.27638C7.51118 2.04506 8.71659 2.16378 9.81204 2.61753C10.9075 3.07128 11.8438 3.83969 12.5026 4.82557C13.1613 5.81146 13.5129 6.97054 13.5129 8.15626C13.5111 9.7457 12.8789 11.2695 11.755 12.3934C10.6311 13.5174 9.10727 14.1495 7.51783 14.1513Z" fill="white"/>
</svg>
