<svg width="12" height="17" viewBox="0 0 12 17" fill="none" xmlns="http://www.w3.org/2000/svg">
<path d="M8.25 17H3.75C1.68225 17 0 15.4112 0 13.4583V3.54167C0 1.58879 1.68225 0 3.75 0H8.25C10.3177 0 12 1.58879 12 3.54167V13.4583C12 15.4112 10.3177 17 8.25 17ZM3.75 1.41667C2.5095 1.41667 1.5 2.37008 1.5 3.54167V13.4583C1.5 14.6299 2.5095 15.5833 3.75 15.5833H8.25C9.4905 15.5833 10.5 14.6299 10.5 13.4583V3.54167C10.5 2.37008 9.4905 1.41667 8.25 1.41667H3.75ZM7.5 13.4583C7.5 13.0673 7.164 12.75 6.75 12.75H5.25C4.836 12.75 4.5 13.0673 4.5 13.4583C4.5 13.8493 4.836 14.1667 5.25 14.1667H6.75C7.164 14.1667 7.5 13.8493 7.5 13.4583Z" fill="#13FC03"/>
</svg>
