<svg width="19" height="19" viewBox="0 0 19 19" fill="none" xmlns="http://www.w3.org/2000/svg">
<path d="M17.983 3.4393C17.7684 3.18177 17.4997 2.97466 17.1961 2.83265C16.8925 2.69065 16.5613 2.61725 16.2261 2.61766H3.89159L3.85955 2.34988C3.79398 1.79329 3.52646 1.2801 3.10771 0.907617C2.68896 0.535131 2.14809 0.32924 1.58765 0.328979L1.41829 0.328979C1.21596 0.328979 1.02191 0.409356 0.878842 0.552426C0.735772 0.695496 0.655396 0.889541 0.655396 1.09187C0.655396 1.2942 0.735772 1.48825 0.878842 1.63132C1.02191 1.77439 1.21596 1.85477 1.41829 1.85477H1.58765C1.77451 1.85479 1.95486 1.92339 2.0945 2.04756C2.23413 2.17173 2.32334 2.34283 2.3452 2.5284L3.39495 11.4543C3.50393 12.3825 3.94993 13.2385 4.64831 13.8597C5.34669 14.4808 6.24882 14.824 7.18348 14.824H15.1504C15.3527 14.824 15.5467 14.7436 15.6898 14.6005C15.8329 14.4574 15.9133 14.2634 15.9133 14.0611C15.9133 13.8587 15.8329 13.6647 15.6898 13.5216C15.5467 13.3785 15.3527 13.2982 15.1504 13.2982H7.18348C6.71129 13.2968 6.25107 13.1495 5.86591 12.8763C5.48075 12.6032 5.18951 12.2176 5.03211 11.7724H14.1258C15.0201 11.7724 15.8861 11.4582 16.5723 10.8847C17.2585 10.3112 17.7213 9.51475 17.88 8.6346L18.4789 5.31296C18.5387 4.9834 18.5252 4.64472 18.4395 4.32092C18.3538 3.99713 18.198 3.69614 17.983 3.4393ZM16.9813 5.04214L16.3817 8.36377C16.2864 8.89246 16.0082 9.37079 15.5958 9.71501C15.1834 10.0592 14.663 10.2474 14.1258 10.2466H4.78952L4.07163 4.14345H16.2261C16.3381 4.14278 16.449 4.16681 16.5507 4.21383C16.6524 4.26085 16.7425 4.3297 16.8146 4.4155C16.8867 4.5013 16.9391 4.60192 16.9679 4.71023C16.9967 4.81853 17.0013 4.93186 16.9813 5.04214Z" fill="white"/>
<path d="M5.99564 18.6384C6.8383 18.6384 7.52142 17.9552 7.52142 17.1126C7.52142 16.2699 6.8383 15.5868 5.99564 15.5868C5.15297 15.5868 4.46985 16.2699 4.46985 17.1126C4.46985 17.9552 5.15297 18.6384 5.99564 18.6384Z" fill="white"/>
<path d="M13.6247 18.6384C14.4673 18.6384 15.1505 17.9552 15.1505 17.1126C15.1505 16.2699 14.4673 15.5868 13.6247 15.5868C12.782 15.5868 12.0989 16.2699 12.0989 17.1126C12.0989 17.9552 12.782 18.6384 13.6247 18.6384Z" fill="white"/>
</svg>
