<svg width="19" height="18" viewBox="0 0 19 18" fill="none" xmlns="http://www.w3.org/2000/svg">
<path d="M13.5613 0.38562C12.7228 0.398662 11.9026 0.632728 11.1836 1.06418C10.4645 1.49563 9.87197 2.10919 9.46588 2.84289C9.05979 2.10919 8.46728 1.49563 7.7482 1.06418C7.02911 0.632728 6.20891 0.398662 5.37042 0.38562C4.03377 0.443694 2.77443 1.02842 1.86753 2.01206C0.960629 2.9957 0.479889 4.29829 0.530338 5.63525C0.530338 10.6801 8.68848 16.5068 9.03548 16.754L9.46588 17.0586L9.89627 16.754C10.2433 16.5083 18.4014 10.6801 18.4014 5.63525C18.4519 4.29829 17.9711 2.9957 17.0642 2.01206C16.1573 1.02842 14.898 0.443694 13.5613 0.38562ZM9.46588 15.2253C7.0436 13.4159 2.01959 8.97044 2.01959 5.63525C1.96869 4.69308 2.2924 3.76901 2.92012 3.06457C3.54784 2.36013 4.42864 1.93247 5.37042 1.87488C6.3122 1.93247 7.193 2.36013 7.82072 3.06457C8.44844 3.76901 8.77215 4.69308 8.72125 5.63525H10.2105C10.1596 4.69308 10.4833 3.76901 11.111 3.06457C11.7387 2.36013 12.6196 1.93247 13.5613 1.87488C14.5031 1.93247 15.3839 2.36013 16.0116 3.06457C16.6394 3.76901 16.9631 4.69308 16.9122 5.63525C16.9122 8.97193 11.8882 13.4159 9.46588 15.2253Z" fill="white"/>
</svg>
