<svg width="98" height="98" viewBox="0 0 98 98" fill="none" xmlns="http://www.w3.org/2000/svg">
<rect x="1" y="1" width="96" height="96" stroke="#13FC03" stroke-width="2"/>
<path d="M77.748 27.3074C77.4406 27 77.2408 27 48.5476 27L19.6547 27L19.3319 27.3227C19.1168 27.5379 19.0553 27.7377 19.1168 27.9682C19.3012 28.5522 19.6393 28.6905 20.9149 28.6905L22.1136 28.6905L22.1136 29.92L22.1136 31.1495L20.9149 31.1495C19.6393 31.1495 19.3012 31.2878 19.1168 31.8718C19.0553 32.1024 19.1168 32.3022 19.3319 32.5173C19.6086 32.794 19.8545 32.8401 20.8842 32.8401L22.1136 32.8401L22.1136 34.0696L22.1136 35.299L21.0532 35.299C20.4692 35.299 19.8083 35.3605 19.6086 35.4374C19.1321 35.6218 18.9784 36.1904 19.2858 36.6361C19.4856 36.9589 19.6239 36.9896 20.8227 36.9896L22.129 36.9896L22.0829 38.2652L22.0368 39.5254L20.6844 39.5715C19.3934 39.6176 19.3319 39.633 19.1782 40.0172C19.0707 40.3092 19.086 40.509 19.2704 40.7703C19.4856 41.1084 19.6086 41.1391 20.8227 41.1391L22.129 41.1391L22.0829 42.4147L22.0368 43.6749L20.6844 43.721C19.3934 43.7671 19.3319 43.7825 19.1782 44.1667C19.0707 44.4587 19.086 44.6585 19.2704 44.9198C19.4856 45.2579 19.6086 45.2886 20.8073 45.2886L22.1136 45.2886L22.1136 46.595L22.1136 47.9013L20.8073 47.9013C19.5932 47.9013 19.4856 47.932 19.2551 48.2855C19.0246 48.639 19.0246 48.7005 19.2551 49.0539C19.4856 49.4074 19.5932 49.4382 20.8073 49.4382L22.1136 49.4382L22.1136 50.7445L22.1136 52.0508L20.8073 52.0508C19.6086 52.0508 19.4856 52.0816 19.2704 52.4197C19.086 52.6809 19.0707 52.8807 19.1782 53.1727C19.3319 53.5569 19.3934 53.5723 20.6844 53.6184L22.0368 53.6645L22.0829 54.9401L22.129 56.2003L20.8227 56.2003C19.6086 56.2003 19.4856 56.2311 19.2704 56.5692C19.086 56.8305 19.0707 57.0302 19.1782 57.3222C19.3319 57.7065 19.3934 57.7218 20.6844 57.7679L22.0368 57.814L22.0829 59.0896L22.129 60.3499L20.8227 60.3499C19.6239 60.3499 19.4856 60.3806 19.2858 60.7033C18.9784 61.149 19.1321 61.7177 19.6086 61.9021C19.8083 61.9789 20.4692 62.0404 21.0532 62.0404L22.1136 62.0404L22.1136 63.2699L22.1136 64.4994L20.8842 64.4994C19.8545 64.4994 19.6086 64.5455 19.3319 64.8221C19.1168 65.0373 19.0553 65.2371 19.1168 65.4676C19.3012 66.0516 19.6393 66.1899 20.9149 66.1899L22.1136 66.1899L22.1136 67.4194L22.1136 68.6489L20.9149 68.6489C19.6393 68.6489 19.3012 68.7872 19.1168 69.3712C19.0553 69.6018 19.1168 69.8015 19.3319 70.0167L19.6547 70.3394L48.5476 70.3394C77.2408 70.3394 77.4406 70.3394 77.748 70.0321C77.917 69.863 78.0553 69.6171 78.0553 69.4942C78.0553 69.3712 77.917 69.1253 77.748 68.9563C77.4867 68.695 77.2408 68.6489 76.2111 68.6489L74.9816 68.6489L74.9816 67.4194L74.9816 66.1899L76.1804 66.1899C77.456 66.1899 77.7941 66.0516 77.9785 65.4676C78.04 65.2371 77.9785 65.0373 77.7633 64.8221C77.4867 64.5455 77.2408 64.4994 76.2111 64.4994L74.9816 64.4994L74.9816 63.2699L74.9816 62.0404L76.0267 62.0404C77.3791 62.0404 77.748 61.9175 77.917 61.4564C78.0246 61.1798 77.9939 60.98 77.8248 60.7187C77.6096 60.3806 77.4867 60.3499 76.2726 60.3499L74.9662 60.3499L75.0124 59.0896L75.0585 57.814L76.4109 57.7679C77.7019 57.7218 77.7633 57.7065 77.917 57.3222C78.0246 57.0302 78.0092 56.8305 77.8248 56.5692C77.6096 56.2311 77.4867 56.2003 76.2726 56.2003L74.9663 56.2003L75.0124 54.9401L75.0585 53.6645L76.4109 53.6184C77.7019 53.5723 77.7633 53.5569 77.917 53.1727C78.0246 52.8807 78.0092 52.6809 77.8248 52.4197C77.6096 52.0816 77.4867 52.0508 76.2879 52.0508L74.9816 52.0508L74.9816 50.7445L74.9816 49.4382L76.2879 49.4382C77.5021 49.4382 77.6096 49.4074 77.8402 49.0539C78.0707 48.7005 78.0707 48.639 77.8402 48.2855C77.6096 47.932 77.5021 47.9013 76.2879 47.9013L74.9816 47.9013L74.9816 46.595L74.9816 45.2886L76.2879 45.2886C77.4867 45.2886 77.6096 45.2579 77.8248 44.9198C78.0092 44.6585 78.0246 44.4587 77.917 44.1667C77.7633 43.7825 77.7019 43.7671 76.4109 43.721L75.0585 43.6749L75.0124 42.4147L74.9663 41.1391L76.2726 41.1391C77.4867 41.1391 77.6096 41.1084 77.8248 40.7703C78.0092 40.509 78.0246 40.3092 77.917 40.0172C77.7633 39.633 77.7019 39.6176 76.4109 39.5715L75.0585 39.5254L75.0124 38.2652L74.9663 36.9896L76.2726 36.9896C77.4867 36.9896 77.6096 36.9589 77.8248 36.6207C77.9939 36.3595 78.0246 36.1597 77.917 35.8831C77.748 35.422 77.3791 35.299 76.0267 35.299L74.9816 35.299L74.9816 34.0696L74.9816 32.8401L76.2111 32.8401C77.2408 32.8401 77.4867 32.794 77.7633 32.5173C77.9785 32.3022 78.04 32.1024 77.9785 31.8718C77.7941 31.2878 77.456 31.1495 76.1804 31.1495L74.9816 31.1495L74.9816 29.92L74.9816 28.6905L76.2111 28.6905C77.2408 28.6905 77.4867 28.6444 77.748 28.3832C77.917 28.2141 78.0553 27.9682 78.0553 27.8453C78.0553 27.7223 77.917 27.4764 77.748 27.3074ZM48.5476 68.6489L23.6505 68.6489L23.6505 48.6697L23.6505 28.6905L48.5476 28.6905L73.4448 28.6905L73.4448 48.6697L73.4448 68.6489L48.5476 68.6489Z" fill="#13FC03"/>
<path d="M71.3546 30.8729L71.1241 30.5348L48.5476 30.5348L25.9712 30.5348L25.7406 30.8729C25.5255 31.1803 25.4948 33.1167 25.4948 48.6697C25.4947 64.2228 25.5255 66.1592 25.7406 66.4666L25.9712 66.8047L48.5476 66.8047L71.1241 66.8047L71.3546 66.4666C71.5698 66.1592 71.6005 64.2228 71.6005 48.6697C71.6005 33.1167 71.5698 31.1803 71.3546 30.8729ZM69.4182 37.0664C67.4203 36.6669 65.3148 34.5614 64.9459 32.5788L64.8537 32.0717L67.3742 32.0717L69.91 32.0717L69.91 34.6228L69.91 37.174L69.4182 37.0664ZM69.495 58.5979C67.8352 58.9513 66.698 59.5507 65.5761 60.6265C64.5003 61.6562 63.8087 62.8089 63.4552 64.1767L63.1786 65.191L48.5476 65.191L33.9014 65.191L33.6862 64.2842C33.0561 61.4718 30.7201 59.2741 27.6156 58.5979L27.1853 58.5056L27.1853 48.6697L27.1853 38.8338L27.6156 38.7416C30.7047 38.0654 33.0561 35.8677 33.6862 33.0552L33.9014 32.1485L48.5476 32.1485L63.1939 32.1485L63.4091 33.0552C64.0392 35.8523 66.406 38.0654 69.495 38.7416L69.91 38.8338L69.91 48.6697L69.91 58.5056L69.495 58.5979ZM67.3742 65.2678L64.8537 65.2678L64.9459 64.776C65.0996 63.9308 65.8988 62.5168 66.5904 61.8253C67.2666 61.1337 68.5576 60.4267 69.4182 60.2577L69.91 60.1655L69.91 62.7166L69.91 65.2678L67.3742 65.2678ZM31.6729 33.9005C30.9813 35.3759 29.2447 36.7591 27.6925 37.0664L27.1853 37.174L27.1853 34.6228L27.1853 32.0717L29.7211 32.0717L32.2569 32.0717L32.1494 32.5788C32.1032 32.8401 31.8881 33.4395 31.6729 33.9005ZM29.7211 65.2678L27.1853 65.2678L27.1853 62.7166L27.1853 60.1655L27.6925 60.2577C29.8594 60.688 31.9342 62.9164 32.2416 65.1602C32.2569 65.2217 31.1197 65.2678 29.7211 65.2678Z" fill="#13FC03"/>
<path d="M67.9889 40.5859C67.8352 40.34 67.5279 40.2324 66.867 40.1555C64.3158 39.8635 62.2257 37.8041 61.9337 35.2991C61.7493 33.7776 63.1324 33.9159 48.5323 33.9159C33.9014 33.9159 35.4536 33.7468 35.2692 35.3298C34.9618 37.8656 32.9178 39.8174 30.2283 40.1555C29.7826 40.217 29.3215 40.3246 29.2139 40.4168C29.0756 40.5244 29.0295 42.3532 29.0295 48.5929C29.0295 56.1696 29.0449 56.6307 29.3061 56.8612C29.4598 57.0149 29.8287 57.1225 30.136 57.1225C32.6872 57.1225 35.3306 59.812 35.3306 62.4246C35.3306 63.4851 34.5007 63.4236 48.563 63.4236C58.568 63.4236 61.3036 63.3775 61.5187 63.2238C61.6878 63.1009 61.8261 62.6705 61.9337 61.9636C62.2872 59.3817 64.239 57.4298 66.6979 57.1686C68.3424 56.9995 68.2194 57.7065 68.2194 48.7005C68.2194 42.1073 68.1887 40.8471 67.9889 40.5859ZM65.8527 55.6471C64.1775 55.9083 61.9183 57.5989 61.0884 59.2433C60.8579 59.689 60.5812 60.4113 60.4737 60.857L60.2739 61.6562L48.5784 61.7023L36.8982 61.733L36.7907 61.1644C36.3296 58.7054 34.0397 56.3387 31.4731 55.6932L30.6432 55.478L30.5971 48.6236L30.5664 41.7846L31.3348 41.6156C33.9014 41.0623 36.1452 38.8338 36.7445 36.2212L36.9136 35.4527L48.5937 35.4835L60.2739 35.5296L60.489 36.3749C60.7964 37.6043 61.2882 38.4804 62.2103 39.4793C63.3322 40.6934 64.3927 41.2928 66.1139 41.6617L66.5289 41.7539L66.5289 48.6544L66.5289 55.5549L65.8527 55.6471Z" fill="#13FC03"/>
<path d="M59.321 47.3634C58.7677 45.2886 56.8928 43.5673 54.8795 43.3214L54.0035 43.2138L53.8959 42.3378C53.8344 41.846 53.6346 41.1698 53.4502 40.8163C52.9584 39.8481 51.8365 38.7262 50.8683 38.2652C50.1306 37.9117 49.8079 37.8502 48.6245 37.8348C47.4411 37.8348 47.1184 37.8963 46.3807 38.2344C44.6901 39.0336 43.645 40.386 43.2608 42.261L43.061 43.2138L42.308 43.3061C40.6635 43.5212 38.9884 44.7507 38.266 46.2876C37.7128 47.4248 37.6359 49.3613 38.097 50.5447C38.7578 52.3121 40.6021 53.7874 42.3848 54.0026L43.1379 54.0794L43.2147 54.8325C43.4299 56.6153 44.9206 58.4595 46.6727 59.1203C47.8714 59.5814 49.8079 59.5046 50.9298 58.9667C52.482 58.2136 53.6961 56.5384 53.9113 54.9094L54.0035 54.1563L54.9563 53.9565C57.569 53.4186 59.2903 51.4668 59.3979 48.9156C59.4286 48.3162 59.3979 47.6246 59.321 47.3634ZM57.4307 50.3141C57.0926 51.0518 56.2627 51.8356 55.4789 52.1584C55.1869 52.2813 54.4338 52.4196 53.8191 52.4657C53.1889 52.5119 52.6357 52.6348 52.5742 52.727C52.5127 52.8192 52.4359 53.434 52.3744 54.0794C52.3129 55.0169 52.2054 55.4011 51.8365 56.0005C50.5609 58.0753 47.8868 58.4902 46.104 56.8765C45.2126 56.0774 44.8745 55.3089 44.7516 53.8643C44.7055 53.2956 44.5825 52.7577 44.4903 52.6809C44.3981 52.6194 43.8602 52.5119 43.3069 52.4657C41.893 52.3428 41.1246 51.9893 40.3408 51.1133C38.7271 49.3306 39.142 46.6564 41.2168 45.3808C41.8162 45.012 42.2004 44.9044 43.1379 44.8429C43.7834 44.7814 44.3981 44.7046 44.4903 44.6431C44.5825 44.5817 44.7055 44.0284 44.7516 43.3983C44.8438 42.0766 45.0897 41.4004 45.7659 40.6319C47.2106 39.0029 49.7771 38.9875 51.3447 40.6166C52.0363 41.3389 52.3898 42.2764 52.3898 43.3829C52.3898 44.013 52.4666 44.2897 52.6972 44.5202C52.9277 44.7507 53.2043 44.8276 53.8344 44.8276C54.941 44.8276 55.8785 45.181 56.5854 45.8726C57.8917 47.1175 58.1837 48.7004 57.4307 50.3141Z" fill="#13FC03"/>
</svg>
