<svg width="14" height="17" viewBox="0 0 14 17" fill="none" xmlns="http://www.w3.org/2000/svg">
<path d="M7 16.7172L6.51443 16.301C5.84502 15.7404 0 10.6925 0 7C0 3.13401 3.13401 0 7 0C10.866 0 14 3.13401 14 7C14 10.6925 8.15498 15.7405 7.48835 16.3037L7 16.7172ZM7 1.5136C3.97139 1.51703 1.51707 3.97135 1.51364 6.99997C1.51364 9.31966 5.10972 13.0253 7 14.7214C8.89032 13.0246 12.4864 9.31686 12.4864 6.99997C12.4829 3.97135 10.0286 1.51707 7 1.5136Z" fill="#42A655"/>
<path d="M7.00251 9.77464C5.47006 9.77464 4.22777 8.53234 4.22777 6.9999C4.22777 5.46745 5.47006 4.22516 7.00251 4.22516C8.53495 4.22516 9.77725 5.46745 9.77725 6.9999C9.77725 8.53234 8.53499 9.77464 7.00251 9.77464ZM7.00251 5.6125C6.23629 5.6125 5.61514 6.23364 5.61514 6.99987C5.61514 7.76609 6.23629 8.38724 7.00251 8.38724C7.76873 8.38724 8.38988 7.76609 8.38988 6.99987C8.38988 6.23364 7.76876 5.6125 7.00251 5.6125Z" fill="#42A655"/>
</svg>
